<?xml version="1.0" encoding="utf-8"?>
<!-- Generator: Adobe Illustrator 17.0.0, SVG Export Plug-In . SVG Version: 6.00 Build 0)  -->
<!DOCTYPE svg PUBLIC "-//W3C//DTD SVG 1.1//EN" "http://www.w3.org/Graphics/SVG/1.1/DTD/svg11.dtd">
<svg version="1.1" id="Layer_1" xmlns="http://www.w3.org/2000/svg" xmlns:xlink="http://www.w3.org/1999/xlink" x="0px" y="0px"
	 width="735.955px" height="151.685px" viewBox="0 0 735.955 151.685" enable-background="new 0 0 735.955 151.685"
	 xml:space="preserve">
<g>
	<g>
		<g>
			<path fill="#FFD200" d="M719.079,7.067h-114c-7.18,0-13,5.82-13,13v110c0,2.63,0.785,5.073,2.128,7.117
				c0.021,0.032,0.042,0.064,0.063,0.095c0.281,0.419,0.308,0.467,0.04,0.071c18.825-54.669,70.706-93.951,131.768-93.951
				c2.011,0,4.01,0.052,6,0.137v-23.47C732.079,12.888,726.258,7.067,719.079,7.067z"/>
		</g>
		<polygon fill="#ED0009" points="628.079,14.248 636.895,29.113 653.757,32.904 642.344,45.883 643.949,63.091 628.079,56.248 
			612.208,63.091 613.813,45.883 602.4,32.904 619.262,29.113 		"/>
		<path fill="#078F00" d="M726.079,43.401c-61.062,0-112.943,39.282-131.768,93.951c2.338,3.449,6.288,5.716,10.768,5.716h114
			c7.18,0,13-5.82,13-13v-86.53C730.088,43.453,728.09,43.401,726.079,43.401z"/>
	</g>
	<g>
		<path fill-rule="evenodd" clip-rule="evenodd" fill="#007E44" d="M560.646,59.553c0.281-0.906,0.403-2.17,0.403-3.772
			c0-3.329-0.949-5.856-2.863-7.564c-1.896-1.707-4.256-2.548-7.059-2.548c-2.945,0-5.667,1.158-8.148,3.475
			c-2.48,2.318-4.376,5.795-5.667,10.409H560.646z M580.733,81.213c-3.51,6.51-8.087,11.188-13.735,14.054
			c-5.648,2.845-12.726,4.277-21.237,4.277c-12.383,0-21.175-2.908-26.379-8.722c-5.222-5.837-7.844-12.959-7.844-21.387
			c0-5.856,1.23-11.356,3.67-16.519c2.441-5.162,5.748-9.502,9.922-13.001c4.176-3.497,8.289-5.856,12.343-7.058
			c4.073-1.222,8.812-1.833,14.257-1.833c11.697,0,20.088,2.655,25.17,7.965c5.083,5.309,7.624,11.841,7.624,19.574
			c0,2.549-0.545,6.932-1.613,13.146h-47.798c0.686,8.766,4.438,13.148,11.294,13.148c4.638,0,8.349-1.98,11.111-5.919
			L580.733,81.213z M522.332,33.004l-8.852,19.385c-1.857-0.463-3.511-0.674-4.962-0.674c-4.618,0-8.35,1.728-11.233,5.182
			c-2.863,3.457-5.103,8.998-6.676,16.604l-4.962,24.504h-24.098l13.35-65.485h22.505l-2.782,12.896l0.241,0.253
			c3.752-5.817,7.039-9.694,9.863-11.673c2.844-1.981,5.949-2.971,9.336-2.971C516.625,31.025,519.388,31.698,522.332,33.004z
			 M468.797,55.297l-21.761,1.222c-1.008-5.709-4.7-8.575-11.032-8.575c-5.869,0-10.386,2.486-13.532,7.437
			c-3.166,4.952-4.739,10.367-4.739,16.203c0,3.541,1.128,6.258,3.368,8.154c2.259,1.897,4.68,2.845,7.281,2.845
			c6.413,0,11.172-3.709,14.298-11.125l22.508,2.528c-5.567,17.045-18.151,25.558-37.755,25.558
			c-22.104,0-33.155-9.439-33.155-28.339c0-10.976,3.651-20.415,10.933-28.317c7.299-7.902,17.545-11.862,30.794-11.862
			c9.48,0,17.061,2.023,22.75,6.089C464.421,41.158,467.767,47.227,468.797,55.297z M366.2,64l-2.642-32.975h-0.241L348.434,64
			H366.2z M395.343,98.005h-26.239l-1.189-14.812H339.68l-6.736,14.812h-28.839l48.927-90.494h28.537L395.343,98.005z
			 M261.669,82.582c4.498,0,8.067-2.402,10.709-7.205c2.621-4.784,3.952-10.114,3.952-15.951c0-4.235-1.007-7.206-3.004-8.913
			c-2.017-1.708-4.234-2.57-6.696-2.57c-5.061,0-8.874,2.402-11.415,7.227c-2.541,4.804-3.811,9.734-3.811,14.748
			c0,3.625,0.987,6.638,2.986,9.04C256.366,81.36,258.805,82.582,261.669,82.582z M267.518,31.025
			c11.233,0,19.422,2.971,24.564,8.89c5.143,5.922,7.705,12.875,7.705,20.797c0,6.068-1.473,12.22-4.438,18.457
			c-2.945,6.258-7.381,11.231-13.31,14.875c-5.931,3.665-13.232,5.499-21.902,5.499c-10.992,0-19.099-2.824-24.343-8.491
			c-5.245-5.646-7.866-12.705-7.866-21.133c0-6.615,1.572-13.022,4.699-19.194c3.146-6.174,7.684-10.999,13.633-14.475
			C252.211,32.773,259.29,31.025,267.518,31.025z M240.212,32.52l-39.185,65.485H179.71L167.649,32.52h22.749l3.611,41.466h0.242
			l20.792-41.466H240.212z M131.71,82.582c4.497,0,8.066-2.402,10.708-7.205c2.622-4.784,3.952-10.114,3.952-15.951
			c0-4.235-1.007-7.206-3.004-8.913c-2.016-1.708-4.235-2.57-6.696-2.57c-5.062,0-8.874,2.402-11.414,7.227
			c-2.542,4.804-3.812,9.734-3.812,14.748c0,3.625,0.989,6.638,2.984,9.04C126.405,81.36,128.846,82.582,131.71,82.582z
			 M137.558,31.025c11.233,0,19.422,2.971,24.564,8.89c5.143,5.922,7.704,12.875,7.704,20.797c0,6.068-1.472,12.22-4.437,18.457
			c-2.945,6.258-7.381,11.231-13.311,14.875c-5.929,3.665-13.229,5.499-21.902,5.499c-10.991,0-19.099-2.824-24.342-8.491
			c-5.245-5.646-7.866-12.705-7.866-21.133c0-6.615,1.573-13.022,4.7-19.194c3.145-6.174,7.683-10.999,13.632-14.475
			C122.25,32.773,129.33,31.025,137.558,31.025z M105.824,7.511L87.209,98.005H62.16l-21.458-52.59h-0.221l-10.77,52.59H4.541
			L23.156,7.511h25.049l21.337,52.717h0.242l10.87-52.717H105.824z"/>
		<path fill-rule="evenodd" clip-rule="evenodd" fill="#231F20" d="M526.164,128.175h9.218c0.01-0.292,0.014-0.503,0.014-0.633
			c0-1.435-0.349-2.54-1.049-3.309c-0.706-0.762-1.603-1.144-2.705-1.144c-1.2,0-2.286,0.425-3.27,1.267
			C527.384,125.203,526.653,126.476,526.164,128.175z M534.305,132.415l2.709,0.261c-0.392,1.392-1.294,2.705-2.69,3.961
			c-1.406,1.251-3.083,1.876-5.027,1.876c-1.212,0-2.326-0.287-3.334-0.861c-1.015-0.587-1.788-1.421-2.318-2.525
			c-0.531-1.106-0.793-2.358-0.793-3.765c0-1.844,0.414-3.63,1.24-5.363c0.829-1.734,1.904-3.022,3.216-3.864
			c1.319-0.843,2.744-1.261,4.276-1.261c1.955,0,3.516,0.625,4.682,1.873c1.168,1.244,1.75,2.952,1.75,5.109
			c0,0.826-0.075,1.67-0.216,2.538h-12.076c-0.044,0.332-0.065,0.628-0.065,0.891c0,1.589,0.35,2.794,1.062,3.63
			c0.704,0.833,1.571,1.252,2.59,1.252c0.955,0,1.903-0.323,2.834-0.971C533.063,134.556,533.789,133.626,534.305,132.415z
			 M509.598,131.057c0,1.174,0.116,2.103,0.339,2.777c0.227,0.678,0.609,1.237,1.157,1.691c0.544,0.45,1.193,0.672,1.955,0.672
			c1.268,0,2.412-0.677,3.437-2.033c1.378-1.789,2.063-4.011,2.063-6.659c0-1.327-0.334-2.372-1.012-3.128
			c-0.677-0.75-1.535-1.123-2.559-1.123c-0.669,0-1.275,0.152-1.828,0.461c-0.547,0.304-1.09,0.826-1.634,1.561
			c-0.536,0.732-0.994,1.667-1.364,2.798C509.781,129.205,509.598,130.203,509.598,131.057z M517.217,135.703
			c-1.593,1.872-3.25,2.809-4.984,2.809c-1.55,0-2.835-0.593-3.866-1.771c-1.029-1.179-1.545-2.898-1.545-5.141
			c0-2.055,0.409-3.934,1.223-5.637c0.817-1.7,1.836-2.973,3.057-3.821c1.227-0.847,2.454-1.27,3.685-1.27
			c2.028,0,3.563,1.011,4.597,3.034l1.843-9.097h2.774l-4.696,23.343h-2.587L517.217,135.703z M490.132,138.153l3.426-16.923h2.542
			l-0.587,2.959c1.109-1.152,2.144-1.995,3.113-2.524c0.964-0.525,1.949-0.792,2.956-0.792c1.34,0,2.39,0.374,3.154,1.12
			c0.76,0.745,1.143,1.738,1.143,2.988c0,0.625-0.14,1.609-0.424,2.956l-2.212,10.216h-2.771l2.297-10.697
			c0.225-1.047,0.344-1.815,0.344-2.312c0-0.56-0.192-1.015-0.573-1.363c-0.388-0.355-0.938-0.526-1.665-0.526
			c-1.451,0-2.746,0.526-3.883,1.586c-1.138,1.06-1.971,2.877-2.504,5.446l-1.586,7.867H490.132z M477.986,128.175h9.217
			c0.009-0.292,0.015-0.503,0.015-0.633c0-1.435-0.352-2.54-1.05-3.309c-0.703-0.762-1.603-1.144-2.705-1.144
			c-1.199,0-2.286,0.425-3.267,1.267C479.205,125.203,478.475,126.476,477.986,128.175z M486.126,132.415l2.71,0.261
			c-0.392,1.392-1.291,2.705-2.694,3.961c-1.403,1.251-3.08,1.876-5.024,1.876c-1.214,0-2.327-0.287-3.335-0.861
			c-1.015-0.587-1.787-1.421-2.318-2.525c-0.53-1.106-0.793-2.358-0.793-3.765c0-1.844,0.414-3.63,1.238-5.363
			c0.832-1.734,1.904-3.022,3.214-3.864c1.321-0.843,2.742-1.261,4.278-1.261c1.959,0,3.515,0.625,4.684,1.873
			c1.163,1.244,1.749,2.952,1.749,5.109c0,0.826-0.07,1.67-0.214,2.538h-12.079c-0.044,0.332-0.066,0.628-0.066,0.891
			c0,1.589,0.352,2.794,1.063,3.63c0.701,0.833,1.569,1.252,2.589,1.252c0.955,0,1.904-0.323,2.832-0.971
			C484.886,134.556,485.61,133.626,486.126,132.415z M448.099,138.153l3.405-16.923h2.488l-0.706,3.461
			c0.851-1.295,1.676-2.259,2.485-2.884c0.805-0.625,1.631-0.934,2.472-0.934c0.55,0,1.235,0.206,2.043,0.62l-1.137,2.674
			c-0.481-0.372-1.012-0.552-1.587-0.552c-0.978,0-1.981,0.561-3.009,1.687c-1.031,1.127-1.844,3.149-2.439,6.07l-1.367,6.781
			H448.099z M436.205,131.251c0,1.262,0.091,2.131,0.266,2.617c0.258,0.688,0.685,1.243,1.265,1.66
			c0.588,0.424,1.272,0.638,2.044,0.638c1.604,0,2.902-0.931,3.893-2.793c0.987-1.862,1.485-3.762,1.485-5.701
			c0-1.43-0.334-2.533-1.002-3.317c-0.662-0.776-1.487-1.168-2.478-1.168c-0.711,0-1.366,0.196-1.977,0.58
			c-0.606,0.389-1.173,0.97-1.691,1.741c-0.519,0.769-0.952,1.714-1.295,2.832C436.38,129.455,436.205,130.426,436.205,131.251z
			 M430.717,144.642l4.727-23.412h2.577l-0.473,2.37c0.95-1.027,1.809-1.74,2.564-2.135c0.751-0.395,1.548-0.592,2.397-0.592
			c1.561,0,2.853,0.587,3.88,1.755c1.026,1.174,1.54,2.847,1.54,5.032c0,1.756-0.283,3.361-0.849,4.804
			c-0.565,1.447-1.257,2.608-2.082,3.489c-0.826,0.88-1.656,1.53-2.501,1.941c-0.84,0.412-1.707,0.619-2.591,0.619
			c-1.964,0-3.486-1.031-4.57-3.098l-1.851,9.228H430.717z M407.223,138.153l3.426-16.923h2.768l-0.567,2.802
			c1.036-1.196,1.962-2.024,2.781-2.473c0.818-0.457,1.698-0.686,2.659-0.686c1.02,0,1.87,0.277,2.553,0.838
			c0.681,0.556,1.127,1.33,1.342,2.331c0.835-1.06,1.715-1.852,2.636-2.379c0.918-0.533,1.882-0.79,2.904-0.79
			c1.367,0,2.39,0.33,3.072,0.999c0.685,0.67,1.023,1.6,1.023,2.81c0,0.522-0.12,1.383-0.361,2.582l-2.239,10.89h-2.764
			l2.264-11.164c0.193-0.908,0.294-1.562,0.294-1.953c0-0.555-0.174-0.99-0.512-1.306c-0.341-0.316-0.821-0.476-1.438-0.476
			c-0.84,0-1.682,0.26-2.548,0.777c-0.87,0.515-1.54,1.199-2.017,2.037c-0.483,0.843-0.901,2.134-1.263,3.879l-1.66,8.206h-2.768
			l2.312-11.4c0.162-0.776,0.246-1.326,0.246-1.656c0-0.55-0.169-0.995-0.499-1.332c-0.336-0.342-0.772-0.51-1.304-0.51
			c-0.793,0-1.624,0.26-2.489,0.777c-0.877,0.52-1.577,1.244-2.126,2.169c-0.544,0.924-0.991,2.242-1.338,3.961l-1.619,7.992
			H407.223z M395.077,128.175h9.217c0.01-0.292,0.015-0.503,0.015-0.633c0-1.435-0.352-2.54-1.052-3.309
			c-0.704-0.762-1.6-1.144-2.705-1.144c-1.198,0-2.287,0.425-3.269,1.267C396.296,125.203,395.567,126.476,395.077,128.175z
			 M403.216,132.415l2.71,0.261c-0.394,1.392-1.293,2.705-2.693,3.961c-1.405,1.251-3.081,1.876-5.026,1.876
			c-1.212,0-2.326-0.287-3.333-0.861c-1.016-0.587-1.788-1.421-2.318-2.525c-0.53-1.106-0.793-2.358-0.793-3.765
			c0-1.844,0.415-3.63,1.241-5.363c0.83-1.734,1.901-3.022,3.214-3.864c1.319-0.843,2.742-1.261,4.276-1.261
			c1.953,0,3.516,0.625,4.682,1.873c1.167,1.244,1.75,2.952,1.75,5.109c0,0.826-0.075,1.67-0.214,2.538H394.63
			c-0.042,0.332-0.062,0.628-0.062,0.891c0,1.589,0.352,2.794,1.059,3.63c0.706,0.833,1.573,1.252,2.591,1.252
			c0.955,0,1.904-0.323,2.832-0.971C401.977,134.556,402.701,133.626,403.216,132.415z M461.56,128.175h9.217
			c0.009-0.292,0.016-0.503,0.016-0.633c0-1.435-0.355-2.54-1.05-3.309c-0.706-0.762-1.603-1.144-2.704-1.144
			c-1.201,0-2.291,0.425-3.271,1.267C462.778,125.203,462.048,126.476,461.56,128.175z M469.698,132.415l2.713,0.261
			c-0.392,1.392-1.293,2.705-2.695,3.961c-1.403,1.251-3.078,1.876-5.021,1.876c-1.217,0-2.331-0.287-3.339-0.861
			c-1.015-0.587-1.787-1.421-2.317-2.525c-0.53-1.106-0.79-2.358-0.79-3.765c0-1.844,0.412-3.63,1.238-5.363
			c0.828-1.734,1.897-3.022,3.214-3.864s2.743-1.261,4.277-1.261c1.954,0,3.515,0.625,4.681,1.873
			c1.165,1.244,1.747,2.952,1.747,5.109c0,0.826-0.069,1.67-0.218,2.538h-12.076c-0.042,0.332-0.062,0.628-0.062,0.891
			c0,1.589,0.35,2.794,1.058,3.63c0.709,0.833,1.576,1.252,2.594,1.252c0.953,0,1.899-0.323,2.83-0.971
			C468.459,134.556,469.185,133.626,469.698,132.415z M579.621,138.153l0.664-3.26h3.154l-0.678,3.26H579.621z M571.014,138.153
			l3.402-16.923h2.486l-0.703,3.461c0.853-1.295,1.674-2.259,2.485-2.884c0.802-0.625,1.628-0.934,2.469-0.934
			c0.551,0,1.233,0.206,2.043,0.62l-1.133,2.674c-0.484-0.372-1.016-0.552-1.587-0.552c-0.976,0-1.981,0.561-3.01,1.687
			c-1.031,1.127-1.843,3.149-2.436,6.07l-1.369,6.781H571.014z M558.198,131.442c0,1.589,0.378,2.802,1.117,3.621
			c0.74,0.818,1.686,1.23,2.831,1.23c0.598,0,1.195-0.124,1.775-0.373c0.593-0.251,1.136-0.624,1.642-1.134
			c0.508-0.509,0.937-1.094,1.295-1.746c0.355-0.653,0.643-1.353,0.856-2.106c0.318-1.05,0.481-2.058,0.481-3.024
			c0-1.527-0.373-2.71-1.121-3.554c-0.751-0.842-1.691-1.267-2.826-1.267c-0.877,0-1.676,0.22-2.395,0.648
			c-0.727,0.431-1.377,1.053-1.96,1.887c-0.583,0.826-1.01,1.787-1.284,2.887C558.338,129.603,558.198,130.586,558.198,131.442z
			 M555.426,131.724c0-3.295,0.94-6.02,2.819-8.185c1.548-1.777,3.575-2.667,6.095-2.667c1.964,0,3.548,0.636,4.758,1.906
			c1.204,1.273,1.81,2.991,1.81,5.147c0,1.941-0.383,3.746-1.144,5.413c-0.754,1.667-1.839,2.951-3.233,3.835
			c-1.404,0.895-2.878,1.34-4.428,1.34c-1.27,0-2.426-0.283-3.466-0.844c-1.044-0.56-1.839-1.358-2.383-2.386
			C555.701,134.259,555.426,133.071,555.426,131.724z M542.268,131.057c0,1.174,0.116,2.103,0.341,2.777
			c0.226,0.678,0.609,1.237,1.157,1.691c0.538,0.45,1.193,0.672,1.953,0.672c1.267,0,2.412-0.677,3.437-2.033
			c1.378-1.789,2.065-4.011,2.065-6.659c0-1.327-0.335-2.372-1.013-3.128c-0.677-0.75-1.536-1.123-2.558-1.123
			c-0.667,0-1.278,0.152-1.829,0.461c-0.549,0.304-1.09,0.826-1.636,1.561c-0.535,0.732-0.991,1.667-1.358,2.798
			C542.451,129.205,542.268,130.203,542.268,131.057z M549.885,135.703c-1.592,1.872-3.251,2.809-4.978,2.809
			c-1.551,0-2.836-0.593-3.869-1.771c-1.032-1.179-1.541-2.898-1.541-5.141c0-2.055,0.409-3.934,1.221-5.637
			c0.814-1.7,1.833-2.973,3.059-3.821c1.225-0.847,2.451-1.27,3.681-1.27c2.028,0,3.562,1.011,4.598,3.034l1.843-9.097h2.777
			l-4.697,23.343h-2.584L549.885,135.703z M369.638,131.429c0,1.589,0.37,2.802,1.111,3.62c0.741,0.819,1.687,1.231,2.832,1.231
			c0.599,0,1.193-0.124,1.777-0.373c0.588-0.252,1.133-0.625,1.64-1.134c0.509-0.509,0.939-1.094,1.291-1.747
			c0.355-0.651,0.643-1.353,0.863-2.106c0.319-1.049,0.477-2.056,0.477-3.023c0-1.527-0.373-2.71-1.12-3.555
			c-0.751-0.84-1.693-1.265-2.828-1.265c-0.877,0-1.677,0.219-2.396,0.648c-0.724,0.431-1.377,1.052-1.96,1.887
			c-0.581,0.824-1.008,1.787-1.282,2.886C369.773,129.59,369.638,130.572,369.638,131.429z M366.863,131.71
			c0-3.295,0.939-6.02,2.813-8.185c1.551-1.777,3.58-2.668,6.099-2.668c1.96,0,3.55,0.638,4.759,1.906
			c1.202,1.274,1.806,2.992,1.806,5.148c0,1.941-0.376,3.746-1.137,5.413c-0.759,1.667-1.841,2.951-3.238,3.835
			c-1.404,0.893-2.877,1.34-4.423,1.34c-1.274,0-2.43-0.284-3.47-0.844c-1.047-0.56-1.839-1.358-2.384-2.386
			C367.136,134.245,366.863,133.057,366.863,131.71z M356.204,138.139l-2.687-16.923h2.713l1.401,9.315
			c0.157,1.022,0.347,2.684,0.572,4.989c0.538-1.202,1.221-2.573,2.053-4.126l5.465-10.178h2.94l-9.358,16.923H356.204z
			 M340.075,131.429c0,1.589,0.373,2.802,1.116,3.62c0.741,0.819,1.686,1.231,2.831,1.231c0.597,0,1.193-0.124,1.775-0.373
			c0.589-0.252,1.137-0.625,1.639-1.134c0.513-0.509,0.942-1.094,1.294-1.747c0.356-0.651,0.65-1.353,0.86-2.106
			c0.321-1.049,0.482-2.056,0.482-3.023c0-1.527-0.377-2.71-1.122-3.555c-0.75-0.84-1.694-1.265-2.829-1.265
			c-0.877,0-1.672,0.219-2.393,0.648c-0.725,0.431-1.378,1.052-1.961,1.887c-0.581,0.824-1.008,1.787-1.28,2.886
			C340.214,129.59,340.075,130.572,340.075,131.429z M337.303,131.71c0-3.295,0.938-6.02,2.816-8.185
			c1.548-1.777,3.575-2.668,6.092-2.668c1.967,0,3.553,0.638,4.762,1.906c1.201,1.274,1.806,2.992,1.806,5.148
			c0,1.941-0.376,3.746-1.141,5.413c-0.754,1.667-1.838,2.951-3.233,3.835c-1.405,0.893-2.876,1.34-4.428,1.34
			c-1.269,0-2.425-0.284-3.466-0.844c-1.044-0.56-1.84-1.358-2.386-2.386C337.577,134.245,337.303,133.057,337.303,131.71z
			 M324.937,131.237c0,1.262,0.086,2.131,0.264,2.616c0.255,0.69,0.682,1.244,1.263,1.66c0.589,0.424,1.273,0.639,2.042,0.639
			c1.605,0,2.902-0.931,3.896-2.793c0.989-1.862,1.483-3.762,1.483-5.701c0-1.43-0.331-2.535-0.999-3.318
			c-0.662-0.776-1.487-1.167-2.48-1.167c-0.708,0-1.366,0.195-1.977,0.58c-0.608,0.388-1.174,0.97-1.691,1.74
			c-0.523,0.77-0.949,1.714-1.293,2.834C325.108,129.441,324.937,130.412,324.937,131.237z M319.445,144.627l4.731-23.411h2.573
			l-0.473,2.37c0.952-1.027,1.808-1.74,2.562-2.135c0.755-0.395,1.553-0.593,2.402-0.593c1.556,0,2.85,0.588,3.879,1.756
			c1.025,1.174,1.54,2.847,1.54,5.032c0,1.755-0.284,3.36-0.849,4.804c-0.565,1.447-1.259,2.608-2.084,3.487
			c-0.826,0.88-1.656,1.531-2.501,1.943c-0.839,0.412-1.709,0.619-2.591,0.619c-1.962,0-3.486-1.031-4.571-3.098l-1.848,9.227
			H319.445z M294.381,131.343c0,1.588,0.372,2.8,1.112,3.62c0.743,0.818,1.689,1.23,2.834,1.23c0.598,0,1.194-0.122,1.776-0.373
			c0.589-0.251,1.132-0.624,1.64-1.134c0.51-0.508,0.94-1.092,1.291-1.746c0.356-0.653,0.645-1.353,0.864-2.106
			c0.318-1.05,0.476-2.058,0.476-3.023c0-1.529-0.371-2.711-1.118-3.555c-0.751-0.842-1.693-1.267-2.826-1.267
			c-0.879,0-1.677,0.22-2.396,0.648c-0.725,0.431-1.379,1.053-1.962,1.887c-0.58,0.826-1.006,1.787-1.28,2.887
			C294.519,129.503,294.381,130.486,294.381,131.343z M291.607,131.624c0-3.293,0.942-6.02,2.818-8.183
			c1.55-1.778,3.576-2.668,6.092-2.668c1.962,0,3.553,0.636,4.76,1.906c1.204,1.274,1.809,2.991,1.809,5.147
			c0,1.941-0.379,3.747-1.141,5.413c-0.759,1.667-1.84,2.951-3.238,3.835c-1.401,0.895-2.876,1.34-4.422,1.34
			c-1.273,0-2.428-0.283-3.469-0.844c-1.048-0.56-1.839-1.357-2.386-2.386C291.878,134.16,291.607,132.972,291.607,131.624z
			 M281.612,138.153l3.402-16.923h2.485l-0.703,3.461c0.854-1.295,1.677-2.259,2.486-2.884c0.802-0.625,1.63-0.934,2.469-0.934
			c0.551,0,1.235,0.206,2.047,0.62l-1.142,2.674c-0.481-0.372-1.01-0.552-1.583-0.552c-0.978,0-1.983,0.561-3.008,1.687
			c-1.031,1.127-1.846,3.149-2.439,6.07l-1.367,6.781H281.612z M276.014,138.153l3.429-16.923h2.767l-3.424,16.923H276.014z
			 M280.084,118.068l0.661-3.259h2.769l-0.662,3.259H280.084z M263.903,128.175h9.217c0.009-0.292,0.015-0.503,0.015-0.633
			c0-1.435-0.35-2.54-1.05-3.309c-0.703-0.762-1.602-1.144-2.705-1.144c-1.196,0-2.287,0.425-3.27,1.267
			C265.126,125.203,264.391,126.476,263.903,128.175z M272.042,132.415l2.714,0.261c-0.397,1.392-1.295,2.705-2.697,3.961
			c-1.404,1.251-3.081,1.876-5.024,1.876c-1.216,0-2.327-0.287-3.335-0.861c-1.016-0.587-1.787-1.421-2.316-2.525
			c-0.534-1.106-0.797-2.358-0.797-3.765c0-1.844,0.415-3.63,1.24-5.363c0.829-1.734,1.904-3.022,3.216-3.864
			c1.32-0.843,2.743-1.261,4.278-1.261c1.958,0,3.513,0.625,4.682,1.873c1.167,1.244,1.747,2.952,1.747,5.109
			c0,0.826-0.073,1.67-0.214,2.538h-12.079c-0.041,0.332-0.064,0.628-0.064,0.891c0,1.589,0.355,2.794,1.063,3.63
			c0.703,0.833,1.568,1.252,2.589,1.252c0.954,0,1.901-0.323,2.834-0.971C270.799,134.556,271.527,133.626,272.042,132.415z
			 M256.531,131.992l2.807,0.293c-0.703,2.108-1.692,3.673-2.987,4.696c-1.29,1.021-2.755,1.531-4.397,1.531
			c-1.782,0-3.223-0.593-4.334-1.785c-1.099-1.183-1.652-2.84-1.652-4.97c0-1.841,0.351-3.651,1.065-5.434
			c0.703-1.777,1.72-3.136,3.038-4.057c1.326-0.931,2.832-1.394,4.526-1.394c1.755,0,3.148,0.513,4.178,1.54
			c1.023,1.026,1.539,2.376,1.539,4.068l-2.741,0.193c-0.012-1.068-0.311-1.912-0.907-2.514c-0.587-0.601-1.372-0.906-2.337-0.906
			c-1.118,0-2.093,0.365-2.917,1.097c-0.821,0.727-1.466,1.838-1.934,3.324c-0.467,1.489-0.702,2.924-0.702,4.296
			c0,1.442,0.308,2.524,0.924,3.243c0.613,0.722,1.375,1.079,2.279,1.079c0.913,0,1.771-0.351,2.6-1.063
			C255.404,134.524,256.056,133.443,256.531,131.992z M235.796,138.153l3.402-16.923h2.485l-0.704,3.461
			c0.851-1.295,1.673-2.259,2.483-2.884c0.807-0.625,1.631-0.934,2.473-0.934c0.552,0,1.236,0.206,2.044,0.62l-1.134,2.674
			c-0.484-0.372-1.016-0.552-1.588-0.552c-0.978,0-1.983,0.561-3.009,1.687c-1.032,1.127-1.848,3.149-2.438,6.07l-1.367,6.781
			H235.796z M231.782,129.577c-0.393,0.159-0.816,0.281-1.259,0.366c-0.455,0.089-1.206,0.179-2.252,0.267
			c-1.62,0.15-2.763,0.34-3.429,0.568c-0.669,0.23-1.172,0.593-1.509,1.091c-0.34,0.504-0.51,1.05-0.51,1.654
			c0,0.808,0.268,1.473,0.812,1.99c0.534,0.523,1.299,0.78,2.3,0.78c0.923,0,1.81-0.248,2.664-0.753
			c0.849-0.505,1.521-1.209,2.023-2.108C231.115,132.527,231.504,131.246,231.782,129.577z M230.735,136.049
			c-0.965,0.861-1.896,1.483-2.783,1.876c-0.895,0.389-1.851,0.587-2.871,0.587c-1.506,0-2.72-0.46-3.647-1.375
			c-0.922-0.913-1.387-2.089-1.387-3.517c0-0.944,0.213-1.776,0.625-2.505c0.415-0.722,0.97-1.307,1.651-1.742
			c0.688-0.441,1.53-0.754,2.527-0.947c0.633-0.13,1.825-0.23,3.579-0.303c1.755-0.075,3.017-0.268,3.777-0.575
			c0.218-0.786,0.326-1.44,0.326-1.959c0-0.667-0.237-1.193-0.711-1.576c-0.649-0.528-1.593-0.792-2.847-0.792
			c-1.173,0-2.132,0.264-2.884,0.805c-0.746,0.536-1.286,1.301-1.628,2.294l-2.807-0.263c0.572-1.675,1.484-2.957,2.726-3.848
			c1.248-0.891,2.818-1.336,4.713-1.336c2.018,0,3.615,0.501,4.797,1.495c0.898,0.741,1.352,1.712,1.352,2.895
			c0,0.901-0.127,1.946-0.379,3.136l-0.898,4.199c-0.282,1.338-0.426,2.423-0.426,3.26c0,0.534,0.111,1.293,0.336,2.294h-2.814
			C230.908,137.6,230.799,136.905,230.735,136.049z M207.842,131.251c0,1.262,0.09,2.131,0.262,2.617
			c0.257,0.688,0.683,1.243,1.268,1.66c0.587,0.424,1.27,0.638,2.042,0.638c1.603,0,2.902-0.931,3.894-2.793
			c0.987-1.862,1.483-3.762,1.483-5.701c0-1.43-0.33-2.533-0.999-3.317c-0.661-0.776-1.488-1.168-2.481-1.168
			c-0.709,0-1.367,0.196-1.977,0.58c-0.612,0.389-1.169,0.97-1.692,1.741c-0.522,0.769-0.949,1.714-1.29,2.832
			C208.014,129.455,207.842,130.426,207.842,131.251z M202.347,144.642l4.731-23.412h2.578l-0.475,2.37
			c0.952-1.027,1.807-1.74,2.561-2.135c0.753-0.395,1.555-0.592,2.396-0.592c1.563,0,2.857,0.587,3.885,1.755
			c1.024,1.174,1.54,2.847,1.54,5.032c0,1.756-0.283,3.361-0.85,4.804c-0.561,1.447-1.257,2.608-2.082,3.489
			c-0.823,0.88-1.656,1.53-2.501,1.941c-0.842,0.412-1.703,0.619-2.591,0.619c-1.966,0-3.485-1.031-4.57-3.098l-1.849,9.228H202.347
			z M182.103,131.442c0,1.589,0.376,2.802,1.112,3.621c0.743,0.818,1.689,1.23,2.836,1.23c0.598,0,1.19-0.124,1.775-0.373
			c0.588-0.251,1.132-0.624,1.639-1.134c0.508-0.509,0.94-1.094,1.294-1.746c0.355-0.653,0.644-1.353,0.86-2.106
			c0.323-1.05,0.478-2.058,0.478-3.024c0-1.527-0.372-2.71-1.121-3.554c-0.749-0.842-1.689-1.267-2.825-1.267
			c-0.876,0-1.675,0.22-2.397,0.648c-0.725,0.431-1.374,1.053-1.959,1.887c-0.586,0.826-1.008,1.787-1.28,2.887
			C182.237,129.603,182.103,130.586,182.103,131.442z M179.329,131.724c0-3.295,0.94-6.02,2.815-8.185
			c1.55-1.777,3.578-2.667,6.096-2.667c1.964,0,3.553,0.636,4.758,1.906c1.207,1.273,1.808,2.991,1.808,5.147
			c0,1.941-0.377,3.746-1.137,5.413c-0.76,1.667-1.843,2.951-3.237,3.835c-1.408,0.895-2.878,1.34-4.428,1.34
			c-1.27,0-2.426-0.283-3.469-0.844c-1.043-0.56-1.836-1.358-2.384-2.386C179.601,134.259,179.329,133.071,179.329,131.724z
			 M162.767,138.153l3.422-16.923h2.543l-0.587,2.959c1.109-1.152,2.148-1.995,3.109-2.524c0.97-0.525,1.949-0.792,2.961-0.792
			c1.338,0,2.388,0.374,3.151,1.12c0.76,0.745,1.144,1.738,1.144,2.988c0,0.625-0.141,1.609-0.426,2.956l-2.21,10.216h-2.772
			l2.299-10.697c0.225-1.047,0.339-1.815,0.339-2.312c0-0.56-0.187-1.015-0.572-1.363c-0.382-0.355-0.933-0.526-1.658-0.526
			c-1.461,0-2.75,0.526-3.888,1.586c-1.137,1.06-1.969,2.877-2.503,5.446l-1.584,7.867H162.767z M152.398,138.153l3.407-16.923
			h2.488l-0.706,3.461c0.851-1.295,1.675-2.259,2.486-2.884c0.805-0.625,1.629-0.934,2.468-0.934c0.551,0,1.233,0.206,2.044,0.62
			l-1.134,2.674c-0.484-0.372-1.016-0.552-1.588-0.552c-0.976,0-1.981,0.561-3.009,1.687c-1.031,1.127-1.843,3.149-2.439,6.07
			l-1.366,6.781H152.398z M140.222,128.175h9.217c0.011-0.292,0.016-0.503,0.016-0.633c0-1.435-0.352-2.54-1.049-3.309
			c-0.707-0.762-1.603-1.144-2.708-1.144c-1.199,0-2.286,0.425-3.267,1.267C141.442,125.203,140.713,126.476,140.222,128.175z
			 M148.363,132.415l2.713,0.261c-0.395,1.392-1.294,2.705-2.697,3.961c-1.404,1.251-3.08,1.876-5.022,1.876
			c-1.212,0-2.326-0.287-3.337-0.861c-1.016-0.587-1.788-1.421-2.317-2.525c-0.529-1.106-0.792-2.358-0.792-3.765
			c0-1.844,0.414-3.63,1.236-5.363c0.834-1.734,1.906-3.022,3.217-3.864c1.319-0.843,2.743-1.261,4.277-1.261
			c1.958,0,3.515,0.625,4.682,1.873c1.167,1.244,1.751,2.952,1.751,5.109c0,0.826-0.075,1.67-0.216,2.538h-12.081
			c-0.037,0.332-0.059,0.628-0.059,0.891c0,1.589,0.347,2.794,1.059,3.63c0.704,0.833,1.572,1.252,2.59,1.252
			c0.954,0,1.902-0.323,2.832-0.971C147.124,134.556,147.849,133.626,148.363,132.415z M126.153,138.153l-2.682-16.923h2.709
			l1.404,9.317c0.158,1.021,0.35,2.683,0.573,4.988c0.535-1.202,1.214-2.572,2.05-4.125l5.464-10.179h2.941l-9.358,16.923H126.153z
			 M109.241,131.442c0,1.589,0.373,2.802,1.113,3.621c0.74,0.818,1.686,1.23,2.831,1.23c0.602,0,1.193-0.124,1.773-0.373
			c0.592-0.251,1.136-0.624,1.641-1.134c0.512-0.509,0.943-1.094,1.295-1.746c0.357-0.653,0.645-1.353,0.863-2.106
			c0.318-1.05,0.478-2.058,0.478-3.024c0-1.527-0.376-2.71-1.122-3.554c-0.753-0.842-1.691-1.267-2.829-1.267
			c-0.875,0-1.675,0.22-2.394,0.648c-0.723,0.431-1.379,1.053-1.96,1.887c-0.583,0.826-1.011,1.787-1.283,2.887
			C109.378,129.603,109.241,130.586,109.241,131.442z M106.464,131.724c0-3.295,0.94-6.02,2.819-8.185
			c1.548-1.777,3.575-2.667,6.094-2.667c1.964,0,3.552,0.636,4.764,1.906c1.197,1.273,1.802,2.991,1.802,5.147
			c0,1.941-0.376,3.746-1.137,5.413c-0.759,1.667-1.838,2.951-3.239,3.835c-1.404,0.895-2.872,1.34-4.425,1.34
			c-1.27,0-2.426-0.283-3.465-0.844c-1.047-0.56-1.838-1.358-2.384-2.386C106.738,134.259,106.464,133.071,106.464,131.724z
			 M94.782,128.961l0.539-2.641h9.878l-1.919,9.49c-1.241,0.806-2.659,1.463-4.245,1.972c-1.594,0.507-3.159,0.762-4.701,0.762
			c-3.282,0-5.733-1.022-7.354-3.07c-1.363-1.73-2.049-3.956-2.049-6.668c0-2.805,0.599-5.355,1.794-7.652
			c1.193-2.29,2.701-3.993,4.529-5.088c1.815-1.1,3.842-1.651,6.068-1.651c1.602,0,3.034,0.299,4.308,0.903
			c1.277,0.601,2.247,1.403,2.925,2.41c0.677,1.005,1.168,2.312,1.462,3.927l-2.933,0.355c-0.315-1.615-0.976-2.86-1.982-3.723
			c-1-0.865-2.292-1.294-3.861-1.294c-1.632,0-3.164,0.463-4.582,1.382c-1.417,0.918-2.542,2.304-3.397,4.154
			c-0.848,1.854-1.274,3.958-1.274,6.317c0,2.346,0.565,4.123,1.684,5.324c1.121,1.202,2.668,1.801,4.644,1.801
			c1.962,0,4.083-0.666,6.338-2.003l1.016-5.006H94.782z M305.624,138.153l0.667-3.26h3.149l-0.565,2.837
			c-0.347,1.709-0.89,2.957-1.618,3.754c-0.733,0.793-1.599,1.252-2.594,1.364l0.264-1.256c1.22-0.348,2.022-1.494,2.417-3.44
			H305.624z"/>
	</g>
</g>
</svg>
